<?xml version="1.0" encoding="UTF-8"?>
<svg id="Layer_1" xmlns="http://www.w3.org/2000/svg" version="1.1" viewBox="0 0 381.2 112.8">
  <!-- Generator: Adobe Illustrator 29.1.0, SVG Export Plug-In . SVG Version: 2.1.0 Build 142)  -->
  <defs>
    <style>
      .st0 {
        fill: #39b54a;
      }

      .st1 {
        fill: #fff;
      }
    </style>
  </defs>
  <g id="type">
    <path id="type_CompoundPathItem_" class="st1" d="M181.9,56.5h-21.7l-2.2,5h-16.9L168.5,0h5l27.5,61.5h-16.9l-2.2-5ZM171.1,29.9l-5.3,14h10.5l-5.2-14Z"/>
    <path id="type_CompoundPathItem_2" class="st1" d="M255.7,47.2v14.3h-51v-4.2l26.7-42.5h-22.7V.5h47v4.2l-26.8,42.5h26.9Z"/>
    <path id="type_CompoundPathItem_3" class="st1" d="M289.5,62.6c-5.7,0-11.3-1.4-16.3-4.1-4.9-2.6-8.9-6.5-11.8-11.3-2.9-4.8-4.4-10.3-4.4-15.9,0-5.6,1.5-11.1,4.4-15.9,2.9-4.8,6.9-8.7,11.8-11.3,10.2-5.5,22.5-5.5,32.7,0,4.9,2.6,9,6.6,11.9,11.3,2.9,4.8,4.4,10.3,4.4,15.9,0,5.6-1.5,11.1-4.4,15.9-2.9,4.7-7,8.6-11.9,11.3-5,2.8-10.7,4.2-16.4,4.1ZM298,46.1c2.5-1.4,4.5-3.4,5.9-5.9,1.5-2.7,2.2-5.8,2.2-8.8,0-3.1-.7-6.1-2.2-8.8-1.4-2.5-3.4-4.6-5.9-6-5.3-2.8-11.7-2.8-17,0-2.5,1.4-4.5,3.5-5.8,6-1.4,2.7-2.2,5.7-2.1,8.8,0,5.1,1.5,9.1,4.6,12.2,3.2,3.1,7.5,4.8,11.9,4.6,2.9,0,5.8-.7,8.4-2.1h0Z"/>
    <path id="type_CompoundPathItem_4" class="st1" d="M381.2,1.1v61.5h-5l-32.8-31.8v30.7h-15.8V0h5l32.8,31.3V1.1h15.7Z"/>
    <path id="type_CompoundPathItem_5" class="st1" d="M152.5,83.2h-11.5v-3.5h26.8v3.5h-11.5v29.1h-3.9v-29.1Z"/>
    <path id="type_CompoundPathItem_6" class="st1" d="M194.2,112.3l-10.1-13.7h-7v13.7h-3.9v-32.6h11.5c1.9,0,3.8.4,5.5,1.2,1.5.8,2.8,1.9,3.6,3.4.9,1.5,1.3,3.2,1.3,4.9,0,2.1-.6,4.1-1.8,5.7-1.3,1.6-3,2.8-5,3.3l10.4,14.1h-4.5ZM177.2,95.2h7.5c1.8.1,3.5-.5,4.9-1.6,1.2-1.1,1.8-2.7,1.7-4.3,0-1.6-.6-3.2-1.7-4.3-1.3-1.2-3.1-1.8-4.8-1.7h-7.5v12Z"/>
    <path id="type_CompoundPathItem_7" class="st1" d="M208.8,111.3c-2-1-3.6-2.7-4.6-4.6-1.2-2.3-1.7-4.8-1.7-7.3v-19.7h3.9v19.9c0,3.2.8,5.6,2.5,7.2,1.8,1.7,4.2,2.6,6.6,2.5,2.4,0,4.8-.8,6.5-2.5,1.7-1.6,2.5-4,2.5-7.2v-19.9h3.9v19.7c0,2.5-.5,5-1.7,7.3-1,2-2.6,3.6-4.6,4.6-2,1.1-4.3,1.6-6.6,1.6-2.3,0-4.7-.5-6.7-1.6Z"/>
    <path id="type_CompoundPathItem_8" class="st1" d="M243.3,110.6c-2.6-1.4-4.7-3.5-6.1-6.1-3-5.3-3-11.8,0-17.1,1.5-2.5,3.6-4.6,6.1-6.1,2.6-1.5,5.6-2.2,8.5-2.2,2.8,0,5.5.6,7.9,1.9,2.3,1.2,4.2,3,5.6,5.1l-2.9,2.3c-1.2-1.7-2.7-3.2-4.6-4.2-1.9-1-3.9-1.5-6.1-1.5-2.3,0-4.6.6-6.6,1.7-2,1.1-3.6,2.8-4.7,4.8-2.3,4.2-2.3,9.3,0,13.6,1.1,2,2.7,3.6,4.7,4.8,2,1.2,4.3,1.8,6.6,1.7,2.1,0,4.2-.5,6.1-1.5,1.8-1,3.4-2.5,4.6-4.2l2.9,2.3c-1.4,2.2-3.3,3.9-5.6,5.1-2.4,1.3-5.2,1.9-7.9,1.9-3,0-5.9-.7-8.5-2.2Z"/>
    <path id="type_CompoundPathItem_9" class="st1" d="M272.4,79.7h3.9v32.6h-3.9v-32.6ZM297.6,112.3h-4.9l-16.1-17.5,14.7-15.1h4.9l-14.6,15.1,15.9,17.5Z"/>
    <path id="type_CompoundPathItem_10" class="st1" d="M303.7,79.7h3.9v32.6h-3.9v-32.6Z"/>
    <path id="type_CompoundPathItem_11" class="st1" d="M342.4,79.7v33.1h-1.4l-20.7-25v24.5h-3.9v-33.1h1.4l20.7,25v-24.5h3.9Z"/>
    <path id="type_CompoundPathItem_12" class="st1" d="M357.7,110.6c-2.5-1.4-4.7-3.5-6.1-6.1-3-5.3-3-11.8,0-17.1,1.5-2.5,3.6-4.6,6.1-6.1,2.6-1.5,5.6-2.3,8.6-2.2,2.6,0,5.2.6,7.6,1.8,2.3,1.2,4.2,2.8,5.7,4.9l-2.9,2.3c-1.2-1.6-2.7-3-4.5-4-1.8-1-3.8-1.4-5.9-1.4-2.3,0-4.6.6-6.7,1.7-2,1.1-3.6,2.8-4.6,4.8-1.1,2.1-1.7,4.4-1.7,6.7,0,2.4.5,4.7,1.7,6.8,1.1,2,2.7,3.7,4.7,4.8,2.1,1.2,4.4,1.8,6.8,1.8,2.2,0,4.4-.5,6.4-1.6,1.8-1,3.4-2.5,4.5-4.2v-4.4h-11.1v-3.5h15v8.7c-1.5,2.6-3.6,4.7-6.1,6.2-2.7,1.5-5.7,2.3-8.8,2.3-3,0-6-.7-8.6-2.2Z"/>
  </g>
  <g id="logoMark">
    <path id="logoMark_PathItem_" class="st1" d="M51.4,43.4c-20,17.5-31.5,42.8-31.5,69.4H0C0,83.7,11.4,55.6,31.7,34.7c1.5.5,3.1,1,4.6,1.6,5.2,1.9,10.3,4.3,15.1,7.1Z"/>
    <path id="logoMark_PathItem_2" class="st1" d="M122.3.5v65.7c-3.3-7.5-7.4-14.6-12.2-21.3-2.4-3.3-5-6.5-7.7-9.6v-14.4c-4.2.4-8.3,1.2-12.4,2.2h0c-1.7-1.4-3.3-2.8-5.1-4.1-4.8-3.7-10-7.1-15.3-10.1C83.2,3.4,97.7.5,112.3.5h10Z"/>
    <path id="logoMark_PathItem_3" class="st0" d="M122.3,111.6v1.2h-19.9v-1.2c0-24.3-10.4-47-29.3-64.1-4.2-3.8-8.8-7.3-13.6-10.3-6.3-4-12.9-7.2-19.9-9.8-12.7-4.6-26.1-7-39.6-6.9V.5c20.4,0,40.6,4.5,58.9,13.5,7.1,3.5,13.9,7.7,20.2,12.6,2.5,1.9,4.9,3.9,7.3,6.1,5.9,5.4,11.3,11.3,16,17.8,12.9,17.7,19.9,39.1,19.9,61.1Z"/>
  </g>
</svg>