<svg id="Layer_1" data-name="Layer 1" xmlns="http://www.w3.org/2000/svg" viewBox="0 0 381.1704 112.8385">
  <g>
    <g id="type">
      <path id="type_CompoundPathItem_" data-name="type &lt;CompoundPathItem&gt;" d="M181.8884,56.4971H160.1872L157.99,61.5332H141.05L168.52,0h5.0362l27.47,61.5332h-16.94ZM171.0837,29.8506l-5.311,14.01h10.53Z"/>
      <path id="type_CompoundPathItem_2" data-name="type &lt;CompoundPathItem&gt;" d="M255.6846,47.2013V61.5332H204.6457v-4.16l26.7217-42.5323H208.6216V.5086h46.97V4.67L228.7784,47.2013Z"/>
      <path id="type_CompoundPathItem_3" data-name="type &lt;CompoundPathItem&gt;" d="M289.48,62.6318a33.25,33.25,0,0,1-16.3447-4.12A31.2533,31.2533,0,0,1,261.3229,47.249a30.0245,30.0245,0,0,1-4.35-15.9326,30.1009,30.1009,0,0,1,4.35-15.8877A31.144,31.144,0,0,1,273.135,4.12a34.5713,34.5713,0,0,1,32.7353,0,31.4173,31.4173,0,0,1,11.9038,11.3086,29.8693,29.8693,0,0,1,4.395,15.8877,29.7934,29.7934,0,0,1-4.395,15.9326A31.53,31.53,0,0,1,305.87,58.5117,33.5162,33.5162,0,0,1,289.48,62.6318Zm8.5156-16.5732a15.2592,15.2592,0,0,0,5.9063-5.9063,17.6319,17.6319,0,0,0,2.1518-8.8359,17.7061,17.7061,0,0,0-2.1518-8.791,15.19,15.19,0,0,0-5.9063-5.9522,18.18,18.18,0,0,0-16.9853,0,14.9587,14.9587,0,0,0-5.815,5.9522,17.9951,17.9951,0,0,0-2.1059,8.791q0,7.6011,4.5786,12.2236a16.0131,16.0131,0,0,0,11.9038,4.6241A16.9157,16.9157,0,0,0,297.9953,46.0586Z"/>
      <path id="type_CompoundPathItem_4" data-name="type &lt;CompoundPathItem&gt;" d="M381.17,1.0986V62.6318h-5.0362L343.353,30.8584V61.5332h-15.75V0H332.64l32.7812,31.3164V1.0986Z"/>
      <path id="type_CompoundPathItem_5" data-name="type &lt;CompoundPathItem&gt;" d="M152.51,83.1511H141.05V79.6933h26.8224v3.4578H156.3625v29.144H152.51Z"/>
      <path id="type_CompoundPathItem_6" data-name="type &lt;CompoundPathItem&gt;" d="M194.2489,112.2951,184.123,98.6124h-6.9652v13.6827h-3.8529V79.6933h11.46a11.8657,11.8657,0,0,1,5.5076,1.21,8.8619,8.8619,0,0,1,3.631,3.3592,9.3037,9.3037,0,0,1,1.2839,4.8652,9.1336,9.1336,0,0,1-1.8274,5.7052,9.4591,9.4591,0,0,1-5.0383,3.3343l10.4225,14.1276ZM177.1578,95.1546h7.4589a6.763,6.763,0,0,0,4.8657-1.63,5.7349,5.7349,0,0,0,1.7044-4.3466A5.7964,5.7964,0,0,0,189.458,84.83a6.6643,6.6643,0,0,0-4.8413-1.6791h-7.4589Z"/>
      <path id="type_CompoundPathItem_7" data-name="type &lt;CompoundPathItem&gt;" d="M208.8458,111.2579a11.19,11.19,0,0,1-4.5939-4.6183,15.0219,15.0219,0,0,1-1.6547-7.2867v-19.66H206.45V99.6q0,4.7433,2.544,7.2121a9.0643,9.0643,0,0,0,6.5945,2.47,8.9153,8.9153,0,0,0,6.52-2.47q2.5186-2.4684,2.5191-7.2121V79.6933h3.8529v19.66a15.032,15.032,0,0,1-1.6547,7.2867,11.1945,11.1945,0,0,1-4.5939,4.6183,13.8073,13.8073,0,0,1-6.6438,1.5806A14.0147,14.0147,0,0,1,208.8458,111.2579Z"/>
      <path id="type_CompoundPathItem_8" data-name="type &lt;CompoundPathItem&gt;" d="M243.3491,110.6159a16.3722,16.3722,0,0,1-6.15-6.0764,17.3664,17.3664,0,0,1,0-17.0907,16.3729,16.3729,0,0,1,6.15-6.0764,16.9734,16.9734,0,0,1,8.5458-2.2225,16.4977,16.4977,0,0,1,7.9034,1.902,14.9593,14.9593,0,0,1,5.631,5.112l-2.865,2.2723a13.6193,13.6193,0,0,0-4.569-4.2231,12.1863,12.1863,0,0,0-6.0511-1.5069,12.901,12.901,0,0,0-6.6194,1.7288,12.49,12.49,0,0,0-4.6675,4.7676,14.3829,14.3829,0,0,0,0,13.5832,12.4836,12.4836,0,0,0,4.6675,4.7675,12.8913,12.8913,0,0,0,6.6194,1.7289,12.1768,12.1768,0,0,0,6.0511-1.5069,13.6094,13.6094,0,0,0,4.569-4.2232l2.865,2.2724a14.5218,14.5218,0,0,1-5.6066,5.1119,16.6291,16.6291,0,0,1-7.9278,1.9021A16.9725,16.9725,0,0,1,243.3491,110.6159Z"/>
      <path id="type_CompoundPathItem_9" data-name="type &lt;CompoundPathItem&gt;" d="M272.3936,79.6933h3.8529v32.6018h-3.8529Zm25.2419,32.6018h-4.89L276.6914,94.8083l14.6706-15.115h4.94L281.73,94.8083Z"/>
      <path id="type_CompoundPathItem_10" data-name="type &lt;CompoundPathItem&gt;" d="M303.6616,79.6933h3.8529v32.6018h-3.8529Z"/>
      <path id="type_CompoundPathItem_11" data-name="type &lt;CompoundPathItem&gt;" d="M342.4374,79.6933v33.1452h-1.383L320.3074,87.844v24.4511h-3.8529V79.15h1.3835l20.7465,25.0442V79.6933Z"/>
      <path id="type_CompoundPathItem_12" data-name="type &lt;CompoundPathItem&gt;" d="M357.6753,110.6159a16.4264,16.4264,0,0,1-6.1247-6.0764,17.3658,17.3658,0,0,1,0-17.0907,16.4271,16.4271,0,0,1,6.1247-6.0764A16.9351,16.9351,0,0,1,366.246,79.15a16.4367,16.4367,0,0,1,7.5823,1.7537,15.7855,15.7855,0,0,1,5.7052,4.9149l-2.9143,2.2723a13.4211,13.4211,0,0,0-4.4953-3.9763,12.2114,12.2114,0,0,0-5.8779-1.4083,12.9949,12.9949,0,0,0-6.6687,1.7288,12.1422,12.1422,0,0,0-4.6188,4.7676,13.8536,13.8536,0,0,0-1.6547,6.7423,14.0732,14.0732,0,0,0,1.68,6.8409,12.2727,12.2727,0,0,0,4.6925,4.8412,13.2018,13.2018,0,0,0,6.7676,1.7538,12.7853,12.7853,0,0,0,6.3721-1.5806,12.3785,12.3785,0,0,0,4.4949-4.2481V99.1558H366.1962V95.6981h14.9672v8.6931a16.2224,16.2224,0,0,1-6.15,6.15,17.2126,17.2126,0,0,1-8.7678,2.2972A16.9342,16.9342,0,0,1,357.6753,110.6159Z"/>
    </g>
    <g id="logoMark">
      <path id="logoMark_PathItem_" data-name="logoMark &lt;PathItem&gt;" d="M51.4257,43.4081a92.1782,92.1782,0,0,0-31.4994,69.43H.0173a111.9411,111.9411,0,0,1,31.69-78.121q2.2981.727,4.57,1.558A95.4113,95.4113,0,0,1,51.4257,43.4081Z"/>
      <path id="logoMark_PathItem_2" data-name="logoMark &lt;PathItem&gt;" d="M122.3016.5086v65.665a115.4254,115.4254,0,0,0-12.1877-21.2507,117.6879,117.6879,0,0,0-7.7213-9.6168V20.9543A91.41,91.41,0,0,0,89.98,23.1616h-.0087c-1.6619-1.42-3.35-2.7959-5.0638-4.103A130.0654,130.0654,0,0,0,69.6294,8.94,111.9158,111.9158,0,0,1,112.3471.5086Z"/>
      <path id="logoMark_PathItem_3" data-name="logoMark &lt;PathItem&gt;" d="M122.3016,111.592v1.2465h-19.909V111.592c0-24.2543-10.4218-47.0284-29.344-64.1415A100.2036,100.2036,0,0,0,59.424,37.1151a104.4774,104.4774,0,0,0-19.8571-9.7726A114.3565,114.3565,0,0,0,0,20.4176V.5086a132.3206,132.3206,0,0,1,58.9219,13.53A120.6329,120.6329,0,0,1,79.0992,26.6067q3.7655,2.8824,7.297,6.0765a113.6634,113.6634,0,0,1,15.9964,17.8056A103.64,103.64,0,0,1,122.3016,111.592Z" style="fill: #39b54a"/>
    </g>
  </g>
</svg>
